<svg width="934" height="379" viewBox="0 0 934 379" fill="none" xmlns="http://www.w3.org/2000/svg">
<g clip-path="url(#clip0_191_330)">
<path d="M4.5 101.15C1.11921 107.194 -5 121.223 -5 121.223V379.15H845C845 379.15 837.763 375.189 832 373.15C825.61 370.889 821.119 369.609 814.5 368.15C807.84 366.681 803.795 365.241 797 364.65C785.5 363.65 778.216 363.65 766.5 363.65C755.761 363.65 750.228 364.159 739.5 364.65C731.001 365.039 725.502 365.65 716.505 366.649L716.5 366.65C704.83 367.947 698.569 367.659 687 365.65C679.674 364.378 674.521 362.597 667.5 360.15C659.747 357.447 655.452 355.518 648.5 351.15C640.52 346.135 636.072 342.859 630 335.65C624.693 329.349 621.644 325.452 619 317.65C617.279 312.572 617.25 309.459 616.5 304.15L616.412 303.529C615.506 297.118 614.966 293.297 615 286.65C615.033 280.18 616.226 276.614 616.5 270.15C616.74 264.492 616.5 261.313 616.5 255.65C616.5 248.425 616.643 240.784 615.5 233.65C614.328 226.333 613.693 225.836 610.5 219.15C608.047 214.013 606.391 211.222 603 206.65C599.542 201.987 597.439 199.391 593 195.65C588.9 192.194 586.272 190.594 581.5 188.15L581.362 188.079C575.892 185.278 572.614 183.599 566.5 182.65C561.676 181.901 558.878 182.46 554 182.65C547.535 182.902 543.821 182.768 537.5 184.15C528.425 186.134 523.58 188.847 515.645 193.289L515 193.65C507.294 197.962 503.629 201.439 496.5 206.65C489.974 211.421 486.504 214.349 480 219.15C471.891 225.135 467.399 228.579 459 234.15C446.889 242.184 440.092 246.84 427 253.15C417.691 257.637 412.253 259.734 402.5 263.15C392.916 266.507 387.293 267.97 377.649 270.481L377 270.65C366.731 273.323 361.037 275.403 350.5 276.65C338.672 278.05 331.855 277.807 320 276.65C311.725 275.842 307.041 275.264 299 273.15C290.336 270.872 285.622 268.931 277.5 265.15C270.21 261.756 266.245 259.529 259.5 255.15C250.982 249.62 245.945 246.559 239 239.15C233.845 233.651 231.591 229.98 227.5 223.65C223.609 217.629 221.544 214.141 218.5 207.65C215.482 201.215 214.328 197.365 212 190.65C209.39 183.122 208.003 178.862 206 171.15C204.142 163.996 203.705 159.842 202 152.65C200.372 145.784 200.026 141.739 197.5 135.15C195.062 128.789 192.996 125.496 189.5 119.65C184.549 111.37 181.42 106.851 175 99.6499C169.3 93.257 165.941 89.6674 159 84.6499C154.033 81.0599 150.909 79.5314 145.5 76.6499C139.41 73.4052 135.96 71.5777 129.5 69.1499C122.847 66.6494 119.389 65.3986 112.5 63.6499C107.45 62.368 104.162 61.857 99 61.1499C91.2618 60.0899 85.8017 59.7791 78 60.1499C71.3428 60.4663 68.5332 61.3326 62 62.6499C54.3126 64.1999 50.1599 65.9507 43 69.1499C37.3371 71.6802 34.2384 73.3288 29 76.6499C22.9971 80.4557 19.468 82.5668 14.5 87.6499C9.91413 92.342 7.70276 95.4238 4.5 101.15Z" fill="#F3AD5F"/>
<path d="M-1 22.75L58.9114 8.31313C123.436 -7.23537 188.157 33.2063 202.468 98.0166V98.0166C216.6 162.015 279.973 202.409 343.954 188.199L389.961 177.982C438.124 167.285 488.548 178.615 527.506 208.887L604.647 268.829C648.015 302.528 698.283 326.245 751.868 338.288L933 379" stroke="#F5D234" stroke-width="4"/>
</g>
<defs>
<clipPath id="clip0_191_330">
<rect width="934" height="379" fill="white"/>
</clipPath>
</defs>
</svg>
