<svg width="654" height="177" viewBox="0 0 654 177" fill="none" xmlns="http://www.w3.org/2000/svg">
<path d="M0 149.414V0H654C654 0 652.954 4.74798 651.779 7.61343C649.64 12.827 647.807 15.6592 643.846 19.668C639.764 23.799 636.838 25.6964 631.47 27.9159C625.427 30.4148 621.316 31.0882 614.969 31.0882C608.623 31.0882 600.373 30.7709 591.17 30.7709C581.968 30.7709 576.256 32.0398 576.256 32.0398C572.766 32.9915 571.345 33.5493 568.323 35.5293C562.6 39.2794 558.169 49.8045 558.169 49.8045C558.169 49.8045 554.144 60.4989 550.236 66.6175C544.339 75.849 539.648 80.3536 530.879 86.92C525.011 91.3144 521.434 93.5464 514.696 96.4368C504.221 100.93 497.524 101.956 486.137 102.464C477.819 102.835 469.824 102.077 461.703 100.243C442.029 95.8023 440.125 92.6301 421.086 88.1889C410.814 85.7927 400.886 84.1519 390.623 83.4305C372.134 82.1308 361.502 83.8504 343.342 87.5544C318.174 92.6878 303.903 97.6604 281.782 110.712C261.394 122.74 250.684 137.359 235.135 149.414C235.135 149.414 222.316 160.071 212.923 164.958C204.123 169.536 189.124 173.84 189.124 173.84C166.731 179.369 148.824 177.012 130.102 171.619C111.38 166.227 104.716 157.344 85.3596 149.414C66.0029 141.483 52.0408 140.214 29.8282 141.8C7.61572 143.386 0 149.414 0 149.414Z" fill="#B7C9CF"/>
</svg>
