<svg width="14" height="16" viewBox="0 0 14 16" fill="white" xmlns="http://www.w3.org/2000/svg">
<g clip-path="url(#clip0_17_2103)">
<path d="M7.00315 4.40635C5.01565 4.40635 3.41252 6.00947 3.41252 7.99697C3.41252 9.98447 5.01565 11.5876 7.00315 11.5876C8.99065 11.5876 10.5938 9.98447 10.5938 7.99697C10.5938 6.00947 8.99065 4.40635 7.00315 4.40635ZM7.00315 10.3313C5.71877 10.3313 4.66877 9.28447 4.66877 7.99697C4.66877 6.70947 5.71565 5.6626 7.00315 5.6626C8.29065 5.6626 9.33752 6.70947 9.33752 7.99697C9.33752 9.28447 8.28752 10.3313 7.00315 10.3313ZM11.5781 4.25947C11.5781 4.7251 11.2031 5.09697 10.7407 5.09697C10.275 5.09697 9.90315 4.72197 9.90315 4.25947C9.90315 3.79697 10.2782 3.42197 10.7407 3.42197C11.2031 3.42197 11.5781 3.79697 11.5781 4.25947ZM13.9563 5.10947C13.9031 3.9876 13.6469 2.99385 12.825 2.1751C12.0063 1.35635 11.0125 1.1001 9.89065 1.04385C8.7344 0.978223 5.26877 0.978223 4.11252 1.04385C2.99377 1.09697 2.00002 1.35322 1.17815 2.17197C0.356274 2.99072 0.103149 3.98447 0.0468994 5.10635C-0.0187256 6.2626 -0.0187256 9.72822 0.0468994 10.8845C0.100024 12.0063 0.356274 13.0001 1.17815 13.8188C2.00002 14.6376 2.99065 14.8938 4.11252 14.9501C5.26877 15.0157 8.7344 15.0157 9.89065 14.9501C11.0125 14.897 12.0063 14.6407 12.825 13.8188C13.6438 13.0001 13.9 12.0063 13.9563 10.8845C14.0219 9.72822 14.0219 6.26572 13.9563 5.10947ZM12.4625 12.1251C12.2188 12.7376 11.7469 13.2095 11.1313 13.4563C10.2094 13.822 8.0219 13.7376 7.00315 13.7376C5.9844 13.7376 3.79377 13.8188 2.87502 13.4563C2.26252 13.2126 1.79065 12.7407 1.54377 12.1251C1.17815 11.2032 1.26252 9.01572 1.26252 7.99697C1.26252 6.97822 1.18127 4.7876 1.54377 3.86885C1.78752 3.25635 2.2594 2.78447 2.87502 2.5376C3.7969 2.17197 5.9844 2.25635 7.00315 2.25635C8.0219 2.25635 10.2125 2.1751 11.1313 2.5376C11.7438 2.78135 12.2156 3.25322 12.4625 3.86885C12.8281 4.79072 12.7438 6.97822 12.7438 7.99697C12.7438 9.01572 12.8281 11.2063 12.4625 12.1251Z"/>
</g>
<defs>
<clipPath id="clip0_17_2103">
<rect width="14" height="16" fill="white"/>
</clipPath>
</defs>
</svg>
